<mxfile host="app.diagrams.net" modified="2023-04-02T13:58:34.126Z" agent="Mozilla/5.0 (Macintosh; Intel Mac OS X 10_15_7) AppleWebKit/537.36 (KHTML, like Gecko) Chrome/109.0.0.0 Safari/537.36" etag="15NZMPOi60_eEp6NZpdk" version="21.1.2" type="github">
  <diagram name="第 1 页" id="qoFWoqQQtf8SlPOWqUR3">
    <mxGraphModel dx="1331" dy="783" grid="1" gridSize="10" guides="1" tooltips="1" connect="1" arrows="1" fold="1" page="1" pageScale="1" pageWidth="1169" pageHeight="827" math="0" shadow="0">
      <root>
        <mxCell id="0" />
        <mxCell id="1" parent="0" />
        <mxCell id="KE6Zw9q1b7qpx3u-HzaN-10" style="edgeStyle=orthogonalEdgeStyle;rounded=0;orthogonalLoop=1;jettySize=auto;html=1;exitX=1;exitY=0.5;exitDx=0;exitDy=0;" edge="1" parent="1" source="KE6Zw9q1b7qpx3u-HzaN-1">
          <mxGeometry relative="1" as="geometry">
            <mxPoint x="720" y="380" as="targetPoint" />
          </mxGeometry>
        </mxCell>
        <mxCell id="KE6Zw9q1b7qpx3u-HzaN-1" value="平台" style="rounded=1;whiteSpace=wrap;html=1;" vertex="1" parent="1">
          <mxGeometry x="430" y="350" width="170" height="60" as="geometry" />
        </mxCell>
        <mxCell id="KE6Zw9q1b7qpx3u-HzaN-13" style="edgeStyle=orthogonalEdgeStyle;rounded=0;orthogonalLoop=1;jettySize=auto;html=1;exitX=1;exitY=0.5;exitDx=0;exitDy=0;entryX=1;entryY=0.5;entryDx=0;entryDy=0;" edge="1" parent="1" target="KE6Zw9q1b7qpx3u-HzaN-3">
          <mxGeometry relative="1" as="geometry">
            <mxPoint x="520" y="420" as="sourcePoint" />
            <Array as="points">
              <mxPoint x="520" y="450" />
            </Array>
          </mxGeometry>
        </mxCell>
        <mxCell id="KE6Zw9q1b7qpx3u-HzaN-3" value="商家" style="rounded=1;whiteSpace=wrap;html=1;" vertex="1" parent="1">
          <mxGeometry x="160" y="430" width="110" height="40" as="geometry" />
        </mxCell>
        <mxCell id="KE6Zw9q1b7qpx3u-HzaN-15" style="edgeStyle=orthogonalEdgeStyle;rounded=0;orthogonalLoop=1;jettySize=auto;html=1;exitX=1;exitY=0.5;exitDx=0;exitDy=0;" edge="1" parent="1" source="KE6Zw9q1b7qpx3u-HzaN-4">
          <mxGeometry relative="1" as="geometry">
            <mxPoint x="520" y="340" as="targetPoint" />
          </mxGeometry>
        </mxCell>
        <mxCell id="KE6Zw9q1b7qpx3u-HzaN-4" value="用户" style="rounded=1;whiteSpace=wrap;html=1;" vertex="1" parent="1">
          <mxGeometry x="160" y="280" width="110" height="40" as="geometry" />
        </mxCell>
        <mxCell id="KE6Zw9q1b7qpx3u-HzaN-7" value="" style="group" vertex="1" connectable="0" parent="1">
          <mxGeometry x="730" y="345" width="160" height="70" as="geometry" />
        </mxCell>
        <mxCell id="KE6Zw9q1b7qpx3u-HzaN-2" value="众包" style="rounded=1;whiteSpace=wrap;html=1;" vertex="1" parent="KE6Zw9q1b7qpx3u-HzaN-7">
          <mxGeometry width="80" height="30" as="geometry" />
        </mxCell>
        <mxCell id="KE6Zw9q1b7qpx3u-HzaN-5" value="达达/顺丰平台配送" style="rounded=1;whiteSpace=wrap;html=1;" vertex="1" parent="KE6Zw9q1b7qpx3u-HzaN-7">
          <mxGeometry x="100" width="60" height="70" as="geometry" />
        </mxCell>
        <mxCell id="KE6Zw9q1b7qpx3u-HzaN-6" value="专送合作商" style="rounded=1;whiteSpace=wrap;html=1;" vertex="1" parent="KE6Zw9q1b7qpx3u-HzaN-7">
          <mxGeometry y="40" width="80" height="30" as="geometry" />
        </mxCell>
        <mxCell id="KE6Zw9q1b7qpx3u-HzaN-8" value="BD" style="rounded=1;whiteSpace=wrap;html=1;" vertex="1" parent="1">
          <mxGeometry x="360" y="490" width="80" height="30" as="geometry" />
        </mxCell>
        <mxCell id="KE6Zw9q1b7qpx3u-HzaN-11" value="佣金补贴&lt;br&gt;配送成本" style="text;html=1;strokeColor=none;fillColor=none;align=center;verticalAlign=middle;whiteSpace=wrap;rounded=0;" vertex="1" parent="1">
          <mxGeometry x="630" y="345" width="60" height="30" as="geometry" />
        </mxCell>
        <mxCell id="KE6Zw9q1b7qpx3u-HzaN-14" value="扣取交易佣金" style="text;html=1;strokeColor=none;fillColor=none;align=center;verticalAlign=middle;whiteSpace=wrap;rounded=0;" vertex="1" parent="1">
          <mxGeometry x="350" y="420" width="80" height="30" as="geometry" />
        </mxCell>
        <mxCell id="KE6Zw9q1b7qpx3u-HzaN-17" value="" style="endArrow=open;html=1;rounded=0;dashed=1;endFill=0;" edge="1" parent="1">
          <mxGeometry width="50" height="50" relative="1" as="geometry">
            <mxPoint x="250" y="330" as="sourcePoint" />
            <mxPoint x="250" y="424" as="targetPoint" />
          </mxGeometry>
        </mxCell>
        <mxCell id="KE6Zw9q1b7qpx3u-HzaN-18" value="" style="endArrow=open;html=1;rounded=0;dashed=1;endFill=0;" edge="1" parent="1">
          <mxGeometry width="50" height="50" relative="1" as="geometry">
            <mxPoint x="180" y="424" as="sourcePoint" />
            <mxPoint x="180" y="330" as="targetPoint" />
          </mxGeometry>
        </mxCell>
        <mxCell id="KE6Zw9q1b7qpx3u-HzaN-19" value="- 供给增加&lt;br&gt;- 流量" style="text;html=1;strokeColor=none;fillColor=none;align=left;verticalAlign=middle;whiteSpace=wrap;rounded=0;" vertex="1" parent="1">
          <mxGeometry x="120" y="365" width="60" height="30" as="geometry" />
        </mxCell>
        <mxCell id="KE6Zw9q1b7qpx3u-HzaN-20" value="需求增加" style="text;html=1;strokeColor=none;fillColor=none;align=center;verticalAlign=middle;whiteSpace=wrap;rounded=0;" vertex="1" parent="1">
          <mxGeometry x="250" y="360" width="60" height="30" as="geometry" />
        </mxCell>
        <mxCell id="KE6Zw9q1b7qpx3u-HzaN-22" value="交易" style="text;html=1;strokeColor=none;fillColor=none;align=center;verticalAlign=middle;whiteSpace=wrap;rounded=0;" vertex="1" parent="1">
          <mxGeometry x="360" y="270" width="60" height="30" as="geometry" />
        </mxCell>
        <mxCell id="KE6Zw9q1b7qpx3u-HzaN-23" value="" style="endArrow=open;html=1;rounded=0;dashed=1;endFill=0;entryX=1;entryY=1;entryDx=0;entryDy=0;entryPerimeter=0;" edge="1" parent="1" target="KE6Zw9q1b7qpx3u-HzaN-3">
          <mxGeometry width="50" height="50" relative="1" as="geometry">
            <mxPoint x="530" y="420" as="sourcePoint" />
            <mxPoint x="280" y="470" as="targetPoint" />
            <Array as="points">
              <mxPoint x="530" y="470" />
            </Array>
          </mxGeometry>
        </mxCell>
        <mxCell id="KE6Zw9q1b7qpx3u-HzaN-26" value="Actor" style="shape=umlActor;verticalLabelPosition=bottom;verticalAlign=top;html=1;outlineConnect=0;" vertex="1" parent="1">
          <mxGeometry x="220" y="100" width="30" height="60" as="geometry" />
        </mxCell>
      </root>
    </mxGraphModel>
  </diagram>
</mxfile>
